<svg id="Layer_1" data-name="Layer 1" xmlns="http://www.w3.org/2000/svg" xmlns:xlink="http://www.w3.org/1999/xlink" viewBox="0 0 410 64"><defs><style>.cls-1{fill:none;}.cls-2{clip-path:url(#clip-path);}.cls-3{fill:#d81f27;}.cls-4{fill:#fff;}</style><clipPath id="clip-path"><rect class="cls-1" x="3.46" y="2" width="67.26" height="60"/></clipPath></defs><g class="cls-2"><path class="cls-3" d="M65.54,7.44a17.45,17.45,0,0,0-25.26,0l-3.19,3.3L33.9,7.4A17.49,17.49,0,0,0,21.26,2h0A17.42,17.42,0,0,0,8.65,7.4a18.9,18.9,0,0,0,0,26L35.33,61.25a2.41,2.41,0,0,0,3.4.09l.09-.09Q52.17,47.33,65.54,33.41a18.84,18.84,0,0,0,0-26"/><path class="cls-4" d="M47.64,17.76a9.54,9.54,0,0,0-2.08.22c-1.37-3.45-4.92-5.17-8.47-5.16S30,14.54,28.63,18a9.54,9.54,0,0,0-2.08-.22,10,10,0,0,0-1,20V47.89s0,.07,0,.1a1.69,1.69,0,0,0,.48,1,3.57,3.57,0,0,0,.89.63,10.93,10.93,0,0,0,2.55.82,36.65,36.65,0,0,0,7.58.71,36.69,36.69,0,0,0,7.57-.71,10.93,10.93,0,0,0,2.55-.82,3.77,3.77,0,0,0,.89-.63A1.69,1.69,0,0,0,48.59,48V37.76a10,10,0,0,0-1-20"/><path d="M37.1,46.47a35.82,35.82,0,0,1,7.17.67,9.62,9.62,0,0,1,2.1.67l.15.08-.15.09a10.2,10.2,0,0,1-2.1.67,35.9,35.9,0,0,1-7.17.66,35.93,35.93,0,0,1-7.18-.66,9.8,9.8,0,0,1-2.1-.67l-.15-.09.15-.08a9.26,9.26,0,0,1,2.1-.67,35.85,35.85,0,0,1,7.18-.67M32.26,36a8.32,8.32,0,0,0,9.67,0,10,10,0,0,0,4.79,1.74v8.15a13.28,13.28,0,0,0-2-.61,37.39,37.39,0,0,0-7.57-.71,37.35,37.35,0,0,0-7.58.71,13,13,0,0,0-2.05.61V37.77A10,10,0,0,0,32.26,36m4.83-21.32c3,0,6,1.49,6.91,4.49a.94.94,0,0,0,.47.71l0,0h0a.93.93,0,0,0,.83,0,8.16,8.16,0,1,1-1.93,14.82,12.81,12.81,0,0,0,3-5,.94.94,0,1,0-1.77-.61v0A10.47,10.47,0,0,1,41.48,34a1.13,1.13,0,0,0-.27.22,6.7,6.7,0,0,1-4.11,1.46A6.77,6.77,0,0,1,33,34.24a.91.91,0,0,0-.24-.2,10.49,10.49,0,0,1-3.14-4.86.94.94,0,0,0-1.18-.61.93.93,0,0,0-.61,1.17v0a12.81,12.81,0,0,0,3,5A8.15,8.15,0,1,1,28.83,20a.94.94,0,0,0,.85,0l0,0h0a.94.94,0,0,0,.45-.69C31.07,16.22,34.08,14.71,37.09,14.71Zm0-1.89c-3.54,0-7.09,1.72-8.46,5.16a9.54,9.54,0,0,0-2.08-.22,10,10,0,0,0-1,20V47.89s0,.07,0,.1a1.69,1.69,0,0,0,.48,1,3.57,3.57,0,0,0,.89.63,10.93,10.93,0,0,0,2.55.82,36.65,36.65,0,0,0,7.58.71,36.69,36.69,0,0,0,7.57-.71,10.93,10.93,0,0,0,2.55-.82,3.77,3.77,0,0,0,.89-.63A1.69,1.69,0,0,0,48.59,48V37.76a10,10,0,0,0-1-20,9.54,9.54,0,0,0-2.08.22C44.19,14.53,40.64,12.81,37.09,12.82Z"/></g><path class="cls-4" d="M80.26,20.19a.64.64,0,0,1,.5-.22H100c.43,0,.65.26.65.76l0,4.18c0,.64-.3,1-.9,1H89.08c-.55,0-.83.23-.83.68V30c0,.48.22.72.65.72h6.59a.64.64,0,0,1,.72.72v4.39c0,.41-.22.61-.65.61H88.83a.64.64,0,0,0-.42.14.54.54,0,0,0-.16.4v8.71a1,1,0,0,1-.29.81,1.38,1.38,0,0,1-.9.24h-6a1,1,0,0,1-.75-.22.9.9,0,0,1-.22-.68v-25A.92.92,0,0,1,80.26,20.19Z"/><path class="cls-4" d="M107.21,41.47a4.49,4.49,0,0,0,4.55.37,8.87,8.87,0,0,0,2-1.56.41.41,0,0,1,.29-.15,1.83,1.83,0,0,1,.47.11l3.27,1.33a.44.44,0,0,1,.33.44.69.69,0,0,1-.18.43,10.89,10.89,0,0,1-3.91,3.62,11.78,11.78,0,0,1-5.16,1,10.87,10.87,0,0,1-5.17-1.23,9.14,9.14,0,0,1-3.65-3.4,9.27,9.27,0,0,1-1.34-5,10.29,10.29,0,0,1,1.37-5.31,9.81,9.81,0,0,1,3.67-3.62,10,10,0,0,1,5-1.29,10.24,10.24,0,0,1,5.06,1.22A8.67,8.67,0,0,1,117.3,32a11.4,11.4,0,0,1,1.26,5.52,1.55,1.55,0,0,1-.1.69.68.68,0,0,1-.54.21h-11.2c-.36,0-.54.21-.54.61A2.92,2.92,0,0,0,107.21,41.47ZM111,34.73a.87.87,0,0,0,.48-.09c.09-.06.13-.19.13-.41a3.27,3.27,0,0,0-.65-1.84,2.1,2.1,0,0,0-1.83-.93,2.71,2.71,0,0,0-2,.83,3.13,3.13,0,0,0-.79,2.41Z"/><path class="cls-4" d="M128.45,41.47a4.49,4.49,0,0,0,4.55.37,8.87,8.87,0,0,0,2.05-1.56.41.41,0,0,1,.29-.15,1.92,1.92,0,0,1,.47.11l3.27,1.33a.44.44,0,0,1,.33.44.69.69,0,0,1-.18.43,10.89,10.89,0,0,1-3.91,3.62,11.78,11.78,0,0,1-5.16,1A10.87,10.87,0,0,1,125,45.82a9.14,9.14,0,0,1-3.65-3.4,9.27,9.27,0,0,1-1.34-5,10.29,10.29,0,0,1,1.37-5.31A9.81,9.81,0,0,1,125,28.54a10,10,0,0,1,5-1.29,10.24,10.24,0,0,1,5.06,1.22A8.67,8.67,0,0,1,138.54,32a11.4,11.4,0,0,1,1.26,5.52,1.55,1.55,0,0,1-.1.69.68.68,0,0,1-.54.21H128c-.36,0-.54.21-.54.61A2.92,2.92,0,0,0,128.45,41.47Zm3.76-6.74a.87.87,0,0,0,.48-.09c.09-.06.13-.19.13-.41a3.27,3.27,0,0,0-.65-1.84,2.1,2.1,0,0,0-1.83-.93,2.71,2.71,0,0,0-2,.83,3.13,3.13,0,0,0-.79,2.41Z"/><path class="cls-4" d="M154.35,46.49a.74.74,0,0,1-.25-.63v-.69A.29.29,0,0,0,154,45a.19.19,0,0,0-.14-.07.62.62,0,0,0-.32.14,7.64,7.64,0,0,1-2.29,1.53,7.22,7.22,0,0,1-2.75.49,6.29,6.29,0,0,1-5.24-2.54q-2-2.53-2-7.29a12.29,12.29,0,0,1,1-5.2,8.54,8.54,0,0,1,2.79-3.53,6.08,6.08,0,0,1,8.19.63.78.78,0,0,0,.4.18c.19,0,.28-.16.28-.47v-8.1c0-.5.22-.76.65-.76h5.83a.64.64,0,0,1,.51.22.92.92,0,0,1,.18.61v25a.9.9,0,0,1-.22.68,1,1,0,0,1-.75.22H155A1,1,0,0,1,154.35,46.49ZM152.82,32a2.7,2.7,0,0,0-1.35-.32A2.36,2.36,0,0,0,149.34,33a8.68,8.68,0,0,0-.75,4.21,9.25,9.25,0,0,0,.72,4.27,2.34,2.34,0,0,0,2.16,1.28,2.57,2.57,0,0,0,1.8-.67,2.21,2.21,0,0,0,.72-1.71V33.08A4.92,4.92,0,0,0,152.82,32Z"/><path class="cls-4" d="M181.31,32.47a.41.41,0,0,0-.47.46v6.92a1.72,1.72,0,0,0,.62,1.44,3.13,3.13,0,0,0,1.9.46h1.55a.6.6,0,0,1,.47.22.75.75,0,0,1,.18.5l0,2.88c0,.58-.34.94-1,1.08a36.65,36.65,0,0,1-4.86.26,6.93,6.93,0,0,1-4.32-1.26,4.2,4.2,0,0,1-1.66-3.53V33.11a.89.89,0,0,0-.1-.5.53.53,0,0,0-.44-.14h-1.72c-.58,0-.87-.27-.87-.8V28.29c0-.46.27-.68.79-.68h2.13c.26,0,.41-.15.43-.44l.58-5.32c0-.48.26-.72.64-.72h5.3a.63.63,0,0,1,.48.21.85.85,0,0,1,.2.58v5.25a.35.35,0,0,0,.4.4h3.31c.53,0,.79.23.79.68v3.42a.77.77,0,0,1-.23.58,1,1,0,0,1-.67.22Z"/><path class="cls-4" d="M188.22,46.49a.94.94,0,0,1-.21-.7v-25a.92.92,0,0,1,.18-.61.64.64,0,0,1,.5-.22h5.76c.43,0,.65.26.65.76v9c0,.2.06.29.18.29a.44.44,0,0,0,.29-.14,10,10,0,0,1,2.86-2,7.2,7.2,0,0,1,2.9-.59,5.47,5.47,0,0,1,4.14,1.54,6.16,6.16,0,0,1,1.47,4.4V45.61a1,1,0,0,1-1.08,1.08h-5.29a.87.87,0,0,1-.65-.2,1.05,1.05,0,0,1-.18-.7V34.05a1.61,1.61,0,0,0-.5-1.26,2,2,0,0,0-1.37-.47,3,3,0,0,0-2.66,1.8V45.64a1,1,0,0,1-.27.81,1.39,1.39,0,0,1-.92.24h-5.08A1.09,1.09,0,0,1,188.22,46.49Z"/><path class="cls-4" d="M217.47,41.47a4.51,4.51,0,0,0,4.56.37,8.87,8.87,0,0,0,2.05-1.56.41.41,0,0,1,.29-.15,1.92,1.92,0,0,1,.47.11l3.27,1.33a.44.44,0,0,1,.33.44.69.69,0,0,1-.18.43,10.89,10.89,0,0,1-3.91,3.62,11.82,11.82,0,0,1-5.17,1A10.86,10.86,0,0,1,214,45.82a9.23,9.23,0,0,1-3.66-3.4,9.36,9.36,0,0,1-1.33-5,10.29,10.29,0,0,1,1.37-5.31,9.81,9.81,0,0,1,3.67-3.62,10,10,0,0,1,5-1.29,10.27,10.27,0,0,1,5.06,1.22A8.73,8.73,0,0,1,227.57,32a11.4,11.4,0,0,1,1.26,5.52,1.39,1.39,0,0,1-.11.69q-.1.18-.54.21H217c-.36,0-.54.21-.54.61A3,3,0,0,0,217.47,41.47Zm3.77-6.74a.9.9,0,0,0,.48-.09c.09-.06.13-.19.13-.41a3.27,3.27,0,0,0-.65-1.84,2.1,2.1,0,0,0-1.84-.93,2.7,2.7,0,0,0-2,.83,3.13,3.13,0,0,0-.79,2.41Z"/><path class="cls-4" d="M238.77,20.19a.64.64,0,0,1,.5-.22h19.19c.43,0,.65.26.65.76l0,4.18c0,.64-.3,1-.9,1H247.59c-.55,0-.83.23-.83.68V30c0,.48.22.72.65.72H254a.64.64,0,0,1,.72.72v4.39c0,.41-.22.61-.65.61h-6.73a.64.64,0,0,0-.42.14.51.51,0,0,0-.16.4v8.71a1,1,0,0,1-.29.81,1.38,1.38,0,0,1-.9.24h-6a1.09,1.09,0,0,1-.76-.22.94.94,0,0,1-.21-.68v-25A.92.92,0,0,1,238.77,20.19Z"/><path class="cls-4" d="M259.27,46.47a1,1,0,0,1-.2-.68V28.43c0-.55.23-.82.69-.82h5.61a.61.61,0,0,1,.47.19.77.77,0,0,1,.18.53v2c0,.22.08.33.25.33a.51.51,0,0,0,.36-.22A7.42,7.42,0,0,1,269,28.18a5.6,5.6,0,0,1,2.81-.93c.89,0,1.33.24,1.33.72v5.47a.57.57,0,0,1-.19.5.62.62,0,0,1-.53.07,12.58,12.58,0,0,0-3.09-.39,3.36,3.36,0,0,0-2.14.75,2.17,2.17,0,0,0-1,1.7v9.57a1,1,0,0,1-.29.81,1.38,1.38,0,0,1-.9.24H260A1,1,0,0,1,259.27,46.47Z"/><path class="cls-4" d="M278.8,45.79a9.2,9.2,0,0,1-3.55-3.48A9.93,9.93,0,0,1,274,37.25,10.22,10.22,0,0,1,275.29,32a9.29,9.29,0,0,1,3.6-3.52A10.43,10.43,0,0,1,284,27.25a10.59,10.59,0,0,1,5.24,1.27,9,9,0,0,1,3.54,3.57,10.49,10.49,0,0,1,1.26,5.16,9.93,9.93,0,0,1-1.27,5,9.09,9.09,0,0,1-3.59,3.5A10.67,10.67,0,0,1,284,47.05,10.48,10.48,0,0,1,278.8,45.79Zm7.33-4.63a9.28,9.28,0,0,0,.66-4,9.49,9.49,0,0,0-.66-4.12,2.37,2.37,0,0,0-4.22,0,9.51,9.51,0,0,0-.66,4.1,9.3,9.3,0,0,0,.66,4.07,2.39,2.39,0,0,0,4.22,0Z"/><path class="cls-4" d="M296.51,46.49a.94.94,0,0,1-.21-.7V28.43a.89.89,0,0,1,.18-.61.6.6,0,0,1,.5-.21h5.8c.43,0,.64.24.64.72V30c0,.19.06.28.18.28a.38.38,0,0,0,.29-.14A9.15,9.15,0,0,1,306.56,28a6.65,6.65,0,0,1,3.06-.75,5.45,5.45,0,0,1,4.08,1.58,5.76,5.76,0,0,1,1.57,4.25V45.61a1,1,0,0,1-1.08,1.08H308.9a.85.85,0,0,1-.65-.2,1.05,1.05,0,0,1-.18-.7V34.05a1.63,1.63,0,0,0-.52-1.26,2,2,0,0,0-1.39-.47,3,3,0,0,0-2.66,1.8V45.64a1,1,0,0,1-.27.81,1.39,1.39,0,0,1-.92.24h-5.08A1.07,1.07,0,0,1,296.51,46.49Z"/><path class="cls-4" d="M328,32.47a.41.41,0,0,0-.47.46v6.92a1.74,1.74,0,0,0,.61,1.44,3.18,3.18,0,0,0,1.91.46h1.55a.6.6,0,0,1,.47.22.75.75,0,0,1,.18.5l0,2.88c0,.58-.35.94-1,1.08a36.75,36.75,0,0,1-4.86.26A6.93,6.93,0,0,1,322,45.43a4.17,4.17,0,0,1-1.66-3.53V33.11a.8.8,0,0,0-.11-.5c-.07-.1-.21-.14-.43-.14h-1.73c-.57,0-.86-.27-.86-.8V28.29c0-.46.26-.68.79-.68h2.13c.26,0,.4-.15.43-.44l.58-5.32c0-.48.26-.72.64-.72h5.29a.64.64,0,0,1,.49.21.85.85,0,0,1,.2.58v5.25a.35.35,0,0,0,.39.4h3.32c.52,0,.79.23.79.68v3.42a.74.74,0,0,1-.24.58.94.94,0,0,1-.66.22Z"/><path class="cls-4" d="M341.91,45.64a1,1,0,0,1-.29.81,1.38,1.38,0,0,1-.9.24h-5.11a1.08,1.08,0,0,1-.76-.22.94.94,0,0,1-.21-.68l.17-25c0-.55.23-.83.69-.83h5.76a.62.62,0,0,1,.47.2.8.8,0,0,1,.18.56Z"/><path class="cls-4" d="M352.09,25a1,1,0,0,1-.28.79,1.36,1.36,0,0,1-.9.25h-5.08a1,1,0,0,1-.72-.23,1,1,0,0,1-.22-.7V20.8c0-.55.23-.83.69-.83h5.87a.6.6,0,0,1,.46.2.8.8,0,0,1,.18.56Zm0,20.66a1,1,0,0,1-.28.81,1.42,1.42,0,0,1-.9.24h-5.08a1,1,0,0,1-.74-.22,1,1,0,0,1-.2-.68V28.43c0-.55.23-.82.69-.82h5.87a.59.59,0,0,1,.46.19.77.77,0,0,1,.18.53Z"/><path class="cls-4" d="M355.26,46.49a.94.94,0,0,1-.21-.7V28.43a.94.94,0,0,1,.18-.61.61.61,0,0,1,.5-.21h5.8c.43,0,.64.24.64.72V30c0,.19.06.28.18.28a.38.38,0,0,0,.29-.14A9.15,9.15,0,0,1,365.31,28a6.65,6.65,0,0,1,3.06-.75,5.45,5.45,0,0,1,4.08,1.58A5.76,5.76,0,0,1,374,33.08V45.61a1,1,0,0,1-1.08,1.08h-5.29a.85.85,0,0,1-.65-.2,1.05,1.05,0,0,1-.18-.7V34.05a1.63,1.63,0,0,0-.52-1.26,2,2,0,0,0-1.39-.47,3,3,0,0,0-2.66,1.8V45.64a1,1,0,0,1-.27.81,1.39,1.39,0,0,1-.92.24H356A1.09,1.09,0,0,1,355.26,46.49Z"/><path class="cls-4" d="M384.51,41.47a4.51,4.51,0,0,0,4.56.37,8.87,8.87,0,0,0,2.05-1.56.4.4,0,0,1,.29-.15,1.78,1.78,0,0,1,.46.11l3.28,1.33a.43.43,0,0,1,.32.44.69.69,0,0,1-.18.43,10.88,10.88,0,0,1-3.9,3.62,11.82,11.82,0,0,1-5.17,1,10.83,10.83,0,0,1-5.16-1.23,9.16,9.16,0,0,1-5-8.35,10.29,10.29,0,0,1,1.37-5.31,9.73,9.73,0,0,1,3.67-3.62,10,10,0,0,1,5-1.29,10.27,10.27,0,0,1,5.06,1.22A8.73,8.73,0,0,1,394.61,32a11.4,11.4,0,0,1,1.26,5.52,1.51,1.51,0,0,1-.11.69q-.11.18-.54.21H384c-.36,0-.54.21-.54.61A3,3,0,0,0,384.51,41.47Zm3.76-6.74a.91.91,0,0,0,.49-.09.5.5,0,0,0,.13-.41,3.27,3.27,0,0,0-.65-1.84,2.11,2.11,0,0,0-1.84-.93,2.7,2.7,0,0,0-2,.83,3.13,3.13,0,0,0-.8,2.41Z"/></svg>