<svg id="Layer_1" data-name="Layer 1" xmlns="http://www.w3.org/2000/svg" xmlns:xlink="http://www.w3.org/1999/xlink" viewBox="0 0 900 400"><defs><style>.cls-1,.cls-10,.cls-11,.cls-12,.cls-6,.cls-7,.cls-8{fill:none;}.cls-2{clip-path:url(#clip-path);}.cls-3{fill:#d81f27;}.cls-4{clip-path:url(#clip-path-2);}.cls-5{clip-path:url(#clip-path-3);}.cls-10,.cls-11,.cls-12,.cls-6,.cls-7,.cls-8{stroke:#231f20;stroke-miterlimit:10;stroke-width:5px;}.cls-7{stroke-dasharray:25.93 12.96 19.44 12.96;}.cls-8{stroke-dasharray:41.05 12.96 25.93 12.96 19.44 12.96;}.cls-9{fill:#231f20;}.cls-10{stroke-dasharray:25.48 12.74 19.11 12.74;}.cls-11{stroke-dasharray:40.35 12.74 25.48 12.74 19.11 12.74;}.cls-12{stroke-dasharray:38 12 24 12 18 12;}.cls-13{fill:#010101;}</style><clipPath id="clip-path"><rect class="cls-1" x="371.53" y="12.35" width="156.95" height="140"/></clipPath><clipPath id="clip-path-2"><rect class="cls-1" x="15" y="237.35" width="150" height="139.81"/></clipPath><clipPath id="clip-path-3"><rect class="cls-1" x="751.28" y="237.25" width="133.72" height="140"/></clipPath></defs><g class="cls-2"><path class="cls-3" d="M516.36,25.05a40.71,40.71,0,0,0-58.92,0L450,32.75,442.55,25a40.8,40.8,0,0,0-29.5-12.61h0A40.64,40.64,0,0,0,383.63,25a44.06,44.06,0,0,0,0,60.67l62.25,65a5.61,5.61,0,0,0,7.92.22l.22-.22q31.17-32.46,62.34-65a43.93,43.93,0,0,0,0-60.58"/></g><g class="cls-4"><path d="M90,360a128.86,128.86,0,0,1,26.14,2.44,34.15,34.15,0,0,1,7.64,2.44,5.45,5.45,0,0,1,.55.3q-.24.15-.54.3a34.45,34.45,0,0,1-7.65,2.44A128.94,128.94,0,0,1,90,370.34a129,129,0,0,1-26.15-2.43,34.45,34.45,0,0,1-7.65-2.44c-.2-.1-.39-.2-.55-.3.16-.1.35-.2.55-.3a34.45,34.45,0,0,1,7.65-2.44A128.89,128.89,0,0,1,90,360M72.36,322a30.35,30.35,0,0,0,35.27,0,36.37,36.37,0,0,0,17.44,6.32V358a45.92,45.92,0,0,0-7.47-2.2,134.32,134.32,0,0,0-27.6-2.6,134.52,134.52,0,0,0-27.62,2.6,46.22,46.22,0,0,0-7.47,2.2v-29.7A36.33,36.33,0,0,0,72.36,322M90,244.24c11,0,22,5.43,25.19,16.38a3.4,3.4,0,0,0,1.7,2.59l.15.08.06,0a3.4,3.4,0,0,0,3,0,29.72,29.72,0,1,1,8.3,58.25,29.48,29.48,0,0,1-15.34-4.25,46.49,46.49,0,0,0,10.8-18.26,3.41,3.41,0,1,0-6.45-2.22l0,.11A38.29,38.29,0,0,1,106,314.66a3.51,3.51,0,0,0-1,.78,23.74,23.74,0,0,1-30.06,0,3.48,3.48,0,0,0-.9-.72A38.32,38.32,0,0,1,62.6,297a3.41,3.41,0,1,0-6.51,2l0,.08a46.6,46.6,0,0,0,10.82,18.26,29.73,29.73,0,1,1-15.36-55.16,29.9,29.9,0,0,1,8.31,1.16,3.42,3.42,0,0,0,3.1-.05l.15-.08.06,0a3.42,3.42,0,0,0,1.63-2.54C68,249.74,79,244.26,90,244.24Zm0-6.89c-12.92,0-25.83,6.29-30.82,18.8a37.39,37.39,0,0,0-7.6-.78,36.53,36.53,0,0,0-3.48,72.89v36.91c0,.12,0,.23,0,.34a6.15,6.15,0,0,0,1.76,3.75,11.57,11.57,0,0,0,3.25,2.29,39.63,39.63,0,0,0,9.28,3A134.48,134.48,0,0,0,90,377.16a134.38,134.38,0,0,0,27.6-2.59,39.79,39.79,0,0,0,9.28-3,11.52,11.52,0,0,0,3.24-2.29,6,6,0,0,0,1.76-3.82,2.44,2.44,0,0,0,0-.27V328.26a36.53,36.53,0,0,0-3.48-72.89,37.17,37.17,0,0,0-7.57.78C115.83,243.59,102.91,237.33,90,237.35Z"/></g><g class="cls-5"><path d="M878.06,360.76c-1.61,6.67-7.84,10-18.62,10H821.25V340.24l32.26-26.39c11.8,7.7,28,32.77,24.55,46.91m-119.92,0c-3.44-14.14,12.83-39.29,24.56-46.91L815,340.24V370.8H776.83c-10.84,0-17.07-3.37-18.69-10m61.35-31.22L831,324.11l-12.9,10.48-12.83-10.48,11.44,5.43a3.71,3.71,0,0,0,2.78,0m35.33-22.36h0c-.22-.07-.36-.15-.58-.22h-.08c-.22-.07-.36-.07-.58-.15a3.08,3.08,0,0,0-1.17.08h-.08c-.14.07-.29.07-.44.14L818.1,323l-33.79-16a1.08,1.08,0,0,0-.44-.14h-.07a3,3,0,0,0-1.17-.08,1.83,1.83,0,0,0-.59.15H782l-.52.22c-12.6,6.52-34.15,36.06-29.54,55.12,1.62,6.82,7.33,14.95,24.85,14.95h82.76c17.51,0,23.16-8.13,24.84-14.95,4.62-19.06-17-48.6-29.54-55.12"/><path d="M793.84,245.1a10.05,10.05,0,0,1,6.3,2.2c.15.14.37.29.52.44s.22.21.36.29a1.94,1.94,0,0,1,.52.58,2.28,2.28,0,0,0,.22.22l.66.88c.22.3.36.66.58,1a.24.24,0,0,0,.08.14,5,5,0,0,1,.36.88c0,.08.08.15.08.22.07.3.22.59.29.88,0,.08.07.15.07.22a3.45,3.45,0,0,1,.15.88.59.59,0,0,0,.07.3,5.38,5.38,0,0,1,.08,1.17,10.32,10.32,0,0,1-10.34,10.33,5.1,5.1,0,0,1-1-.07c-.22,0-.44-.07-.66-.07a.42.42,0,0,1-.29-.08l-.88-.22h-.07a10.42,10.42,0,0,1-4.18-2.42h-.07a10.22,10.22,0,0,1-3.15-7.4,10.41,10.41,0,0,1,10.33-10.33m24.26-1.4a32.13,32.13,0,0,1,28.22,16.94H809.75a15.91,15.91,0,0,0,.8-5h12a3.23,3.23,0,1,0,0-6.45H809.38a15.25,15.25,0,0,0-2-3.59l-.07-.07a33.75,33.75,0,0,1,10.77-1.84m0,63.85a31.93,31.93,0,0,1-31.88-32,30.22,30.22,0,0,1,.44-5.13,18.09,18.09,0,0,0,3.52,1.24,3.35,3.35,0,0,0,.8.15h.08a2.59,2.59,0,0,0,.73.07h.15c.21,0,.51.08.73.08h1.1a16.45,16.45,0,0,0,12-5.06h43.17a32.72,32.72,0,0,1,1.17,8.5,32.07,32.07,0,0,1-32,32.11m-38.33-32a38.34,38.34,0,1,0,38.33-38.34,39.4,39.4,0,0,0-16.05,3.52,16.38,16.38,0,0,0-8.21-2.2A16.71,16.71,0,0,0,781,266a39.45,39.45,0,0,0-1.24,9.6"/></g><polygon points="854.16 346.1 847.5 346.1 847.5 350.35 843.24 350.35 843.24 357.02 847.5 357.02 847.5 361.35 854.16 361.35 854.16 357.02 858.42 357.02 858.42 350.35 854.16 350.35 854.16 346.1"/><g class="cls-5"><path d="M793.84,261.08a5.72,5.72,0,1,0-5.72-5.72,5.73,5.73,0,0,0,5.72,5.72"/></g><line class="cls-6" x1="386.84" y1="121.48" x2="370.02" y2="130.32"/><line class="cls-7" x1="358.55" y1="136.35" x2="301.18" y2="166.51"/><line class="cls-8" x1="295.44" y1="169.52" x2="190.26" y2="224.81"/><line class="cls-6" x1="184.52" y1="227.83" x2="167.7" y2="236.67"/><polygon class="cls-9" points="165.65 226.49 155 243.35 174.93 244.14 165.65 226.49"/><line class="cls-6" x1="529.44" y1="121.48" x2="546.26" y2="130.32"/><line class="cls-10" x1="557.53" y1="136.25" x2="613.92" y2="165.89"/><line class="cls-11" x1="619.56" y1="168.85" x2="722.94" y2="223.2"/><line class="cls-6" x1="728.58" y1="226.16" x2="745.4" y2="235"/><polygon class="cls-9" points="736.37 244.34 761.28 243.35 747.97 222.27 736.37 244.34"/><line class="cls-12" x1="176.92" y1="335.2" x2="350.57" y2="335.2"/><polygon class="cls-9" points="347.65 345.17 364.92 335.2 347.65 325.23 347.65 345.17"/><line class="cls-12" x1="549.93" y1="335.2" x2="717.08" y2="335.2"/><polygon class="cls-9" points="714.16 345.17 731.43 335.2 714.16 325.23 714.16 345.17"/><path class="cls-13" d="M515.33,343.71s0-.09,0-.13a.43.43,0,0,0,0-.11,3.13,3.13,0,0,0-.16-.93s0-.09-.05-.13a2.73,2.73,0,0,0-.55-.93s0-.05,0-.07l0,0a3.08,3.08,0,0,0-.9-.66l-.08,0a3,3,0,0,0-1-.26h-2.87c-1.49-27.6-22.84-50.17-50.44-54.57a10.64,10.64,0,1,0-19.85-5.3,10.47,10.47,0,0,0,1.37,5.12c-28.17,3.93-50.11,26.76-51.62,54.74h-1.37l-.11,0h-.12a3,3,0,0,0-1,.26l-.08,0a2.84,2.84,0,0,0-.9.66l0,0,0,.06a2.87,2.87,0,0,0-.55.94s0,.08-.05.13a3.18,3.18,0,0,0-.16.93s0,.07,0,.11a.69.69,0,0,0,0,.13,3.24,3.24,0,0,0,.25,1l.05.09a3.38,3.38,0,0,0,.66.89l0,0,14.75,13.32.07.05a3.22,3.22,0,0,0,.87.53l.11,0a3.07,3.07,0,0,0,1,.19h95a3.07,3.07,0,0,0,1-.19l.11,0a3.22,3.22,0,0,0,.87-.53l.07-.05,14.75-13.32,0,0a3.14,3.14,0,0,0,.65-.89.9.9,0,0,0,.05-.09A3,3,0,0,0,515.33,343.71Zm-19,10H403.66l-8-7.17H504.29ZM450,276a4.51,4.51,0,1,1-4.5,4.5A4.51,4.51,0,0,1,450,276Zm-.64,15.16c28.82,0,52.45,21.8,54.11,49.2H395.26C396.92,313,420.54,291.19,449.36,291.19Z"/><path class="cls-13" d="M416.67,308.7A48.34,48.34,0,0,0,402.79,328a3.07,3.07,0,1,0,5.73,2.23,42.21,42.21,0,0,1,12.12-16.87,3.08,3.08,0,0,0-4-4.7Z"/></svg>